<?xml version="1.0" encoding="UTF-8"?>
<svg xmlns="http://www.w3.org/2000/svg" width="720" height="200" viewBox="0 0 720 200">
  <rect width="720" height="200" fill="#FAFAFA"/>
  <text x="360" y="22" text-anchor="middle" font-size="14" font-family="sans-serif" fill="#333">Поток обработки товара</text>
  <g font-family="sans-serif" font-size="11">
    <rect x="10" y="60" width="80" height="40" rx="6" fill="#E8F0FE" stroke="#005BFF"/>
    <text x="50" y="85" text-anchor="middle" fill="#005BFF">Вход</text>
    <rect x="110" y="60" width="80" height="40" rx="6" fill="#E8F0FE" stroke="#005BFF"/>
    <text x="150" y="85" text-anchor="middle" fill="#005BFF">Сканер</text>
    <rect x="210" y="60" width="80" height="40" rx="6" fill="#E8F0FE" stroke="#005BFF"/>
    <text x="250" y="85" text-anchor="middle" fill="#005BFF">WMS</text>
    <rect x="310" y="60" width="80" height="40" rx="6" fill="#E8F0FE" stroke="#005BFF"/>
    <text x="350" y="85" text-anchor="middle" fill="#005BFF">Индукция</text>
    <rect x="410" y="60" width="80" height="40" rx="6" fill="#E8F0FE" stroke="#005BFF"/>
    <text x="450" y="85" text-anchor="middle" fill="#005BFF">Контур</text>
    <rect x="510" y="60" width="80" height="40" rx="6" fill="#E8F0FE" stroke="#005BFF"/>
    <text x="550" y="85" text-anchor="middle" fill="#005BFF">Сброс</text>
    <rect x="610" y="60" width="90" height="40" rx="6" fill="#E6F7EE" stroke="#00A86B"/>
    <text x="655" y="85" text-anchor="middle" fill="#00A86B">КТЯ</text>
  </g>
  <g stroke="#999" stroke-width="1.5" marker-end="url(#arrow)">
    <defs><marker id="arrow" markerWidth="6" markerHeight="6" refX="5" refY="3" orient="auto"><path d="M0,0 L6,3 L0,6 Z" fill="#999"/></marker></defs>
    <line x1="90" y1="80" x2="110" y2="80"/><line x1="190" y1="80" x2="210" y2="80"/>
    <line x1="290" y1="80" x2="310" y2="80"/><line x1="390" y1="80" x2="410" y2="80"/>
    <line x1="490" y1="80" x2="510" y2="80"/><line x1="590" y1="80" x2="610" y2="80"/>
  </g>
  <text x="655" y="140" text-anchor="middle" font-size="10" fill="#666">уплотнение → смена</text>
</svg>